<svg xmlns="http://www.w3.org/2000/svg" width="228.04" height="201.444" viewBox="0 0 228.04 201.444">
  <g id="Group_1" data-name="Group 1" transform="translate(-118.042 -131.717) rotate(2)" opacity="0.99" style="isolation: isolate">
    <g id="Group_2" data-name="Group 2" transform="translate(124.79 125.32)">
      <path id="Path_57" data-name="Path 57" d="M710.412,402.374q-.441-2.275-.908-4.489h0a0,0,0,0,1,0,0c-3.937-18.681-9.242-34-15.524-46.493l-16.646-5.726,12.547-1.793a99.7,99.7,0,0,0-16.6-21.377L642.7,325.985l23.078-9.891c-42.412-31.9-98.015-6.278-113.166,1.776-2.078,1.1-3.393,1.876-3.814,2.126,0,0,0,0-.009,0l-.136.083,8.6,4.467h0L710.017,403.9Z" transform="translate(-484.675 -300.501)" fill="#6c63ff"/>
      <path id="Path_58" data-name="Path 58" d="M672.685,421.748q.3-1.177.566-2.359c-.447-.653-.938-1.368-1.473-2.131h0a0,0,0,0,1,0,0c-17.615-25.187-82.184-107.485-156.56-79.549h0q-2.065.776-4.139,1.666s0,0-.009,0q-1.887.809-3.779,1.719c-.64.3-1.276.618-1.916.938-.557.281-1.109.566-1.666.859a18.656,18.656,0,0,0-6.712,3.783c-6.966,5.883-15.41,20.259-4.222,53.823,0,0,9.934,27.808,4.967,40.724s25.831,27.8,34.761,0a316.055,316.055,0,0,0,11.925-54.63s10.276,21.653,9.264,43.368a83.3,83.3,0,0,0,2.775,26.379c.246.9.513,1.8.78,2.709a198,198,0,0,0,15.7,38.308,129.257,129.257,0,0,0,12.074,18.3,130.66,130.66,0,0,0,17.343-7.045,133.128,133.128,0,0,0,69.935-85.341Z" transform="translate(-446.948 -319.875)" fill="#09071e"/>
      <path id="Path_59" data-name="Path 59" d="M310.659,307.725l-3.973-32.776,16.885,23.837Z" transform="translate(-250.931 -274.777)" fill="#3f3d56"/>
      <path id="Path_60" data-name="Path 60" d="M288.16,313.861l-3.973-32.776,16.885,23.837Z" transform="translate(-237.09 -278.552)" fill="#3f3d56"/>
      <path id="Path_61" data-name="Path 61" d="M204.212,357.474,161.79,302.333l42.964,38.58Z" transform="translate(-161.79 -291.624)" fill="#f5ff63"/>
    </g>
  </g>
</svg>
